<?xml version="1.0" encoding="UTF-8" standalone="no"?>
<!DOCTYPE svg PUBLIC "-//W3C//DTD SVG 1.1//EN" "http://www.w3.org/Graphics/SVG/1.1/DTD/svg11.dtd">
<svg width="100%" height="100%" viewBox="0 0 500 500" version="1.1" xmlns="http://www.w3.org/2000/svg" xmlns:xlink="http://www.w3.org/1999/xlink" xml:space="preserve" xmlns:serif="http://www.serif.com/" style="fill-rule:evenodd;clip-rule:evenodd;stroke-linejoin:round;stroke-miterlimit:2;">
    <g transform="matrix(1.41317,0,0,1.41317,-182.431,-309.617)">
        <g transform="matrix(1,0,0,1,6.29615,18.7999)">
            <g transform="matrix(1,0,0,1,0,-0.949193)">
                <path d="M342.395,295.133C342.395,291.98 341.91,289.391 340.938,287.375C340.938,286.094 341.84,283.395 343.656,279.273C344.051,278.355 344.484,278.375 344.934,279.31C345.457,280.426 346.66,283.484 348.535,288.488C350.531,293.711 351.684,296.914 352.008,298.121C352.262,299.039 352.402,299.723 352.402,300.172C352.402,301.613 351.02,300.746 348.246,297.578C347.922,297.129 347.762,297.328 347.762,298.172C347.762,298.461 348.625,310.574 350.387,334.496C352.152,358.437 353.035,371.633 353.035,374.098C353.035,381.656 351.863,388.336 349.523,394.133C349.039,395.301 348.641,396.148 348.355,396.668C347.887,397.406 347.617,397.496 347.527,396.957C347.383,396.398 347.438,395.176 347.672,393.285C347.957,390.676 348.102,387.652 348.102,384.195C348.102,381.117 347.148,366.176 345.238,339.375C343.332,312.59 342.395,297.832 342.395,295.133Z" style="fill:rgb(255,93,0);fill-rule:nonzero;"/>
            </g>
            <g transform="matrix(0.24,0,0,0.24,0,0)">
                <path d="M1324.77,1527.17C1337.74,1527.17 1350.34,1522.14 1362.57,1512.09C1366.1,1509.1 1367.9,1498.29 1367.9,1479.54C1367.9,1468.15 1364.98,1422.4 1359.11,1342.22C1353.27,1262.05 1350.42,1214.8 1350.42,1200.39C1350.42,1187.34 1348.33,1176.69 1344.27,1168.21C1344.27,1163.64 1348.01,1152.39 1355.66,1134.47C1356.49,1132.29 1357.24,1131.23 1358.07,1131.23C1358.9,1131.23 1359.86,1132.44 1360.92,1134.85C1363.1,1139.49 1368.12,1152.25 1375.99,1173.1C1384.1,1194.84 1389.05,1208.12 1390.62,1212.99C1391.44,1217.12 1391.9,1219.97 1391.9,1221.53C1391.9,1227.54 1386.2,1224.03 1374.79,1210.97C1373.45,1209.1 1372.77,1209.91 1372.77,1213.45C1372.77,1214.26 1375.33,1249.89 1380.5,1320.46C1385.6,1390.97 1388.22,1433.04 1388.22,1446.61C1388.22,1485.92 1381.17,1516.9 1367.08,1539.39C1355.13,1558.28 1341.1,1567.8 1325,1567.89L1325,1568.08C1319.37,1568.89 1313.75,1568.92 1308.13,1568.08L1308.13,1567.89C1289.04,1567.86 1270.4,1560.15 1252.13,1544.71C1235.17,1528.81 1218.15,1512.99 1201.06,1497.09C1198.88,1495.22 1197.53,1494.24 1197,1494.24C1196.32,1494.24 1196.84,1496.27 1198.65,1500.31C1204.88,1514.71 1207.94,1524.98 1207.94,1531.07C1207.94,1554.02 1201.35,1571.34 1188.07,1583.12C1178.55,1591.67 1157.1,1603.06 1123.57,1617.17L1123.57,1617.16C1103,1625.96 1087.58,1632.86 1077.4,1637.68C1057.08,1647.14 1043.05,1654.87 1035.47,1660.86C1021.52,1671.73 1001.28,1692.52 974.65,1723.12C958.833,1741.41 942.85,1750.64 926.883,1750.64C913.454,1750.64 901.75,1744.57 891.692,1732.49C881.129,1719.89 875.871,1704.51 875.871,1686.28C875.871,1661.23 886.142,1628.54 906.779,1588.27C908.946,1584.07 910.604,1581.97 911.796,1581.97C912.396,1582.12 912.625,1582.64 912.625,1583.53C912.625,1587.67 908.196,1601.69 899.196,1625.77C890.275,1649.84 885.85,1668.88 885.85,1682.83C885.85,1693.56 888.325,1702.12 893.354,1708.48C898.596,1715.38 906.033,1718.92 915.471,1718.92C932.204,1718.92 949.083,1710.37 966.171,1693.41C976.979,1680.52 987.85,1667.69 998.642,1654.79C1012.75,1638.89 1031.28,1624.71 1054.22,1612.26C1067.58,1604.96 1090.71,1594.38 1123.57,1580.54L1123.57,1580.48C1158.97,1565.5 1182.23,1553.86 1193.33,1545.69C1196.55,1543.3 1197.67,1540.07 1196.55,1535.94C1190.62,1514.26 1166.18,1485.38 1123.19,1449.32C1082.1,1416.16 1041,1383.09 999.904,1350.02C998.471,1348.81 997.721,1344.32 997.721,1336.59C997.721,1326.55 998.779,1316.2 1000.95,1305.47C1003.27,1293.54 1006.12,1285.97 1009.5,1282.9C1032.68,1261.96 1082.17,1234.21 1157.92,1199.64C1234.65,1164.53 1285.35,1146.99 1309.88,1146.99C1317.15,1146.99 1322.17,1148.42 1324.87,1151.33C1327.65,1154.26 1329,1159.21 1329,1166.26C1329,1182.39 1319.32,1202.49 1300.13,1226.5C1292.92,1234.67 1285.65,1242.84 1278.37,1251.09C1266.83,1264.52 1259.02,1275.47 1254.98,1283.87C1252.28,1289.57 1250.55,1292.42 1249.87,1292.42C1249.2,1292.42 1249.58,1288.59 1251.08,1281.02C1251.9,1276.82 1255.12,1269.55 1260.68,1259.26C1265.71,1249.74 1269.45,1243.59 1272,1240.74C1293.75,1216.06 1306.72,1199.79 1311.07,1192.06C1311.53,1191.31 1311.67,1190.5 1311.67,1189.67C1311.67,1185.01 1305.6,1182.76 1293.38,1182.76C1274.03,1182.76 1228.12,1199.64 1155.68,1233.4C1083.3,1267.14 1033.72,1294.89 1007.03,1316.63C1005.3,1318.15 1005.52,1319.42 1007.85,1320.46C1031.54,1335.01 1054.88,1350.02 1077.83,1365.46C1133.03,1402.9 1181.85,1439.8 1224.45,1476.17C1237.35,1487.42 1250.18,1498.75 1263.07,1510.14C1278.28,1521.46 1293.28,1527.18 1307.96,1527.17L1307.96,1527.09C1313.73,1528.12 1319.33,1528.14 1324.77,1527.17Z" style="fill:rgb(255,93,0);fill-rule:nonzero;"/>
            </g>
            <g transform="matrix(1,0,0,1,-1.32934,4.33333)">
                <path d="M246.652,358.187C244.926,352.84 243.719,347.441 243.035,341.969C242.91,341.016 242.82,340.437 242.746,340.203C242.551,339.484 242.137,338.711 241.488,337.863L243.684,332.535C244.027,331.652 244.352,331.223 244.602,331.223C244.836,331.223 245.215,331.652 245.773,332.535L251.387,341.52C252.145,342.723 252.504,343.605 252.504,344.164C252.504,344.559 252.324,344.758 251.93,344.758C251.242,344.758 250.02,344.184 248.258,343.047C248.762,346.484 249.895,350.859 251.676,356.133C251.676,356.492 251.102,356.961 249.949,357.555C248.797,358.133 247.895,358.437 247.23,358.437C246.906,358.437 246.727,358.348 246.652,358.187Z" style="fill:rgb(255,93,0);fill-rule:nonzero;"/>
            </g>
            <g transform="matrix(1,0,0,1,-1.7605,-1.93333)">
                <path d="M262.961,367.961C264.223,367.961 264.871,367.617 264.871,366.934C264.871,365.926 263.969,365.043 262.172,364.289C260.84,363.746 258.68,363.73 255.691,364.25C257.273,366.719 259.703,367.961 262.961,367.961ZM205.363,393.789C202.141,393.789 199.332,392.332 196.922,389.434C194.383,386.41 193.121,382.719 193.121,378.344C193.121,372.332 195.59,364.484 200.539,354.82C201.059,353.812 201.457,353.309 201.742,353.309C201.887,353.324 201.941,353.469 201.941,353.687C201.941,354.676 200.879,358.043 198.719,363.82C196.578,369.598 195.516,374.168 195.516,377.52C195.516,380.055 196.109,382.109 197.316,383.672C198.613,385.328 200.395,386.176 202.625,386.176C206.316,386.176 209.773,384.969 213.031,382.559C217.027,379.102 221.039,375.645 225.035,372.207C232.254,366.086 239.453,361.406 246.617,358.187L251.152,356.133C254.988,354.801 258.281,354.137 261.019,354.137C263.773,354.137 265.969,355.289 267.57,357.629C269.191,359.949 270,363.027 270,366.824C270,369.992 269.316,372.605 267.949,374.656C266.578,376.707 264.762,377.734 262.531,377.734C259.433,377.734 256.445,376.223 253.547,373.234C251.387,370.984 249.785,368.57 248.707,365.996C243.414,368.105 237.328,371.867 230.508,377.266C225.484,381.371 220.5,385.473 215.516,389.578C211.805,392.387 208.422,393.789 205.363,393.789Z" style="fill:rgb(255,93,0);fill-rule:nonzero;"/>
            </g>
            <path d="M240.301,383.367L240.301,389.055C240.301,389.504 240.191,389.758 239.992,389.867C239.707,390.008 238.066,389.867 235.117,389.434C232.145,388.984 230.598,388.641 230.473,388.371C229.984,387.383 229.949,384.824 230.383,380.723C230.418,380.219 230.617,380 230.977,380.055C233.605,380.543 236.52,380.992 239.707,381.387C239.633,379.137 239.672,377.176 239.832,375.5C239.867,374.98 240.066,374.766 240.426,374.836C243.434,375.43 246.457,375.898 249.516,376.223C249.68,376.238 249.77,376.418 249.77,376.742L249.77,383.855C249.77,384.305 249.66,384.574 249.461,384.664C249.191,384.789 247.824,384.684 245.34,384.34C242.855,383.996 241.164,383.672 240.301,383.367Z" style="fill:rgb(255,93,0);fill-rule:nonzero;"/>
            <g transform="matrix(1,0,0,1,-2.66667,-0.666667)">
                <path d="M267.82,430.797C267.82,432.453 267.137,434.344 265.77,436.469C264.367,438.684 262.566,440.57 260.351,442.137C259.469,442.75 258.949,443.074 258.785,443.074C258.75,443.074 258.75,443.055 258.75,443.02C258.75,442.895 259.109,442.406 259.867,441.598C263.504,437.621 265.34,434.973 265.34,433.625C265.34,432.363 264.742,431.734 263.574,431.734C262.926,431.734 262.332,431.914 261.808,432.273C261.433,432.527 261.18,432.668 261.09,432.707C261.019,432.633 260.945,432.598 260.84,432.562C260.875,432.437 260.945,432.094 261.035,431.535C261.629,428.801 262.98,427.434 265.141,427.434C266.922,427.434 267.82,428.547 267.82,430.797Z" style="fill:rgb(255,93,0);fill-rule:nonzero;"/>
            </g>
            <g transform="matrix(1,0,0,1,27,-132)">
                <path d="M267.82,430.797C267.82,432.453 267.137,434.344 265.77,436.469C264.367,438.684 262.566,440.57 260.351,442.137C259.469,442.75 258.949,443.074 258.785,443.074C258.75,443.074 258.75,443.055 258.75,443.02C258.75,442.895 259.109,442.406 259.867,441.598C263.504,437.621 265.34,434.973 265.34,433.625C265.34,432.363 264.742,431.734 263.574,431.734C262.926,431.734 262.332,431.914 261.808,432.273C261.433,432.527 261.18,432.668 261.09,432.707C261.019,432.633 260.945,432.598 260.84,432.562C260.875,432.437 260.945,432.094 261.035,431.535C261.629,428.801 262.98,427.434 265.141,427.434C266.922,427.434 267.82,428.547 267.82,430.797Z" style="fill:rgb(255,93,0);fill-rule:nonzero;"/>
            </g>
            <g transform="matrix(-0.913393,0.407079,-0.407079,-0.913393,710.617,746.967)">
                <path d="M267.82,430.797C267.82,432.453 267.137,434.344 265.77,436.469C264.367,438.684 262.566,440.57 260.351,442.137C259.469,442.75 258.949,443.074 258.785,443.074C258.75,443.074 258.75,443.055 258.75,443.02C258.75,442.895 259.109,442.406 259.867,441.598C263.504,437.621 265.34,434.973 265.34,433.625C265.34,432.363 264.742,431.734 263.574,431.734C262.926,431.734 262.332,431.914 261.808,432.273C261.433,432.527 261.18,432.668 261.09,432.707C261.019,432.633 260.945,432.598 260.84,432.562C260.875,432.437 260.945,432.094 261.035,431.535C261.629,428.801 262.98,427.434 265.141,427.434C266.922,427.434 267.82,428.547 267.82,430.797Z" style="fill:rgb(255,93,0);fill-rule:nonzero;"/>
            </g>
            <g transform="matrix(1,0,0,1,49.3333,-123.667)">
                <path d="M267.82,430.797C267.82,432.453 267.137,434.344 265.77,436.469C264.367,438.684 262.566,440.57 260.351,442.137C259.469,442.75 258.949,443.074 258.785,443.074C258.75,443.074 258.75,443.055 258.75,443.02C258.75,442.895 259.109,442.406 259.867,441.598C263.504,437.621 265.34,434.973 265.34,433.625C265.34,432.363 264.742,431.734 263.574,431.734C262.926,431.734 262.332,431.914 261.808,432.273C261.433,432.527 261.18,432.668 261.09,432.707C261.019,432.633 260.945,432.598 260.84,432.562C260.875,432.437 260.945,432.094 261.035,431.535C261.629,428.801 262.98,427.434 265.141,427.434C266.922,427.434 267.82,428.547 267.82,430.797Z" style="fill:rgb(255,93,0);fill-rule:nonzero;"/>
            </g>
            <g transform="matrix(-0.51782,0.189099,-0.189099,-0.51782,419.19,513.192)">
                <path d="M267.82,430.797C267.82,432.453 267.137,434.344 265.77,436.469C264.367,438.684 262.566,440.57 260.351,442.137C259.469,442.75 258.949,443.074 258.785,443.074C258.75,443.074 258.75,443.055 258.75,443.02C258.75,442.895 259.109,442.406 259.867,441.598C263.504,437.621 265.34,434.973 265.34,433.625C265.34,432.363 264.742,431.734 263.574,431.734C262.926,431.734 262.332,431.914 261.808,432.273C261.433,432.527 261.18,432.668 261.09,432.707C261.019,432.633 260.945,432.598 260.84,432.562C260.875,432.437 260.945,432.094 261.035,431.535C261.629,428.801 262.98,427.434 265.141,427.434C266.922,427.434 267.82,428.547 267.82,430.797Z" style="fill:rgb(255,93,0);fill-rule:nonzero;"/>
            </g>
            <g transform="matrix(0.771435,0,0,0.771435,126.763,45.065)">
                <path d="M113.113,389.379C113.113,391.035 112.43,392.926 111.059,395.051C109.656,397.266 107.855,399.152 105.641,400.719C104.762,401.332 104.238,401.656 104.074,401.656C104.039,401.656 104.039,401.637 104.039,401.602C104.039,401.477 104.398,400.988 105.156,400.18C108.793,396.203 110.629,393.555 110.629,392.207C110.629,390.945 110.035,390.316 108.863,390.316C108.215,390.316 107.621,390.496 107.102,390.855C106.723,391.109 106.469,391.25 106.379,391.289C106.309,391.215 106.234,391.18 106.129,391.145C106.164,391.02 106.234,390.676 106.324,390.117C106.922,387.383 108.27,386.016 110.43,386.016C112.211,386.016 113.113,387.129 113.113,389.379Z" style="fill:rgb(255,93,0);fill-rule:nonzero;"/>
            </g>
            <g transform="matrix(0.629726,0,0,0.629726,202.753,198.059)">
                <path d="M61.273,396.398C62.191,396.398 63.035,396.004 63.863,395.211C64.8,394.312 65.269,393.176 65.269,391.809C65.269,390.297 64.421,389.559 62.73,389.559C61.992,389.559 61.343,389.777 60.785,390.242C60.785,389.363 61.398,387.992 62.64,386.141C63.738,384.41 64.855,383.043 65.953,382.035C66.222,381.73 66.293,381.477 66.203,381.242C66.132,381.047 65.953,381.047 65.664,381.207C64.222,382.07 62.695,383.727 61.074,386.141C59.218,388.84 58.3,391.16 58.3,393.125C58.3,395.301 59.293,396.398 61.273,396.398Z" style="fill:rgb(255,93,0);fill-rule:nonzero;"/>
            </g>
            <g transform="matrix(1,0,0,1,140.888,-127.527)">
                <path d="M91.351,426.875C91.351,428.531 90.664,430.418 89.296,432.543C87.894,434.758 86.093,436.648 83.878,438.215C82.996,438.824 82.476,439.148 82.312,439.148C82.277,439.148 82.277,439.133 82.277,439.094C82.277,438.969 82.636,438.484 83.394,437.672C87.031,433.695 88.867,431.051 88.867,429.699C88.867,428.441 88.273,427.809 87.101,427.809C86.453,427.809 85.859,427.988 85.339,428.352C84.96,428.602 84.707,428.746 84.617,428.781C84.546,428.711 84.472,428.672 84.367,428.637C84.402,428.512 84.472,428.168 84.562,427.613C85.156,424.875 86.507,423.508 88.668,423.508C90.449,423.508 91.351,424.625 91.351,426.875Z" style="fill:rgb(255,93,0);fill-rule:nonzero;"/>
            </g>
            <g transform="matrix(0.435605,0.210965,-0.210965,0.435605,309.433,75.0997)">
                <path d="M91.351,426.875C91.351,428.531 90.664,430.418 89.296,432.543C87.894,434.758 86.093,436.648 83.878,438.215C82.996,438.824 82.476,439.148 82.312,439.148C82.277,439.148 82.277,439.133 82.277,439.094C82.277,438.969 82.636,438.484 83.394,437.672C87.031,433.695 88.867,431.051 88.867,429.699C88.867,428.441 88.273,427.809 87.101,427.809C86.453,427.809 85.859,427.988 85.339,428.352C84.96,428.602 84.707,428.746 84.617,428.781C84.546,428.711 84.472,428.672 84.367,428.637C84.402,428.512 84.472,428.168 84.562,427.613C85.156,424.875 86.507,423.508 88.668,423.508C90.449,423.508 91.351,424.625 91.351,426.875Z" style="fill:rgb(255,93,0);fill-rule:nonzero;"/>
            </g>
            <g transform="matrix(-0.437859,-0.206246,0.206246,-0.437859,227.09,479.637)">
                <path d="M91.351,426.875C91.351,428.531 90.664,430.418 89.296,432.543C87.894,434.758 86.093,436.648 83.878,438.215C82.996,438.824 82.476,439.148 82.312,439.148C82.277,439.148 82.277,439.133 82.277,439.094C82.277,438.969 82.636,438.484 83.394,437.672C87.031,433.695 88.867,431.051 88.867,429.699C88.867,428.441 88.273,427.809 87.101,427.809C86.453,427.809 85.859,427.988 85.339,428.352C84.96,428.602 84.707,428.746 84.617,428.781C84.546,428.711 84.472,428.672 84.367,428.637C84.402,428.512 84.472,428.168 84.562,427.613C85.156,424.875 86.507,423.508 88.668,423.508C90.449,423.508 91.351,424.625 91.351,426.875Z" style="fill:rgb(255,93,0);fill-rule:nonzero;"/>
            </g>
            <g transform="matrix(0.690788,0,0,0.690788,255.951,98.821)">
                <path d="M56.773,423.398C57.691,423.398 58.535,423.004 59.363,422.211C60.3,421.312 60.769,420.176 60.769,418.809C60.769,417.297 59.921,416.559 58.23,416.559C57.492,416.559 56.843,416.777 56.285,417.242C56.285,416.363 56.898,414.992 58.14,413.141C59.238,411.41 60.355,410.043 61.453,409.035C61.722,408.73 61.793,408.477 61.703,408.242C61.632,408.047 61.453,408.047 61.164,408.207C59.722,409.07 58.195,410.727 56.574,413.141C54.718,415.84 53.8,418.16 53.8,420.125C53.8,422.301 54.793,423.398 56.773,423.398Z" style="fill:rgb(255,93,0);fill-rule:nonzero;"/>
            </g>
            <g transform="matrix(0.629793,0,0,0.629793,151.691,133.872)">
                <path d="M113.023,430.906C113.941,430.906 114.785,430.508 115.613,429.719C116.551,428.816 117.02,427.684 117.02,426.316C117.02,424.805 116.172,424.066 114.48,424.066C113.742,424.066 113.094,424.281 112.535,424.75C112.535,423.867 113.148,422.5 114.391,420.645C115.488,418.918 116.605,417.551 117.703,416.543C117.973,416.234 118.043,415.984 117.953,415.75C117.883,415.551 117.703,415.551 117.414,415.715C115.973,416.578 114.445,418.234 112.824,420.645C110.969,423.344 110.051,425.668 110.051,427.629C110.051,429.809 111.043,430.906 113.023,430.906Z" style="fill:rgb(255,93,0);fill-rule:nonzero;"/>
            </g>
            <g transform="matrix(0.690788,0,0,0.690788,283.951,156.821)">
                <path d="M62.496,366.539C62.585,366.34 62.695,366.195 62.785,366.086C62.89,366.035 62.929,366.051 62.929,366.141C62.964,366.23 62.964,366.395 62.929,366.629C62.062,371.414 60.625,373.809 58.644,373.809C56.519,373.809 55.476,372.047 55.476,368.535C55.476,364.199 56.718,359.66 59.218,354.91C59.851,353.738 60.21,353.129 60.355,353.109C60.371,353.109 60.39,353.129 60.39,353.145C60.39,353.379 60.21,354.047 59.851,355.16C58.23,360.113 57.421,363.566 57.421,365.547C57.421,368.246 58.14,369.617 59.617,369.617C60.46,369.617 61.414,368.59 62.496,366.539Z" style="fill:rgb(255,93,0);fill-rule:nonzero;"/>
            </g>
            <g transform="matrix(1,0,0,1,120.68,13.7145)">
                <path d="M84.257,397.281C84.347,397.047 84.457,396.902 84.546,396.832C84.617,396.777 84.671,396.797 84.691,396.887C84.726,396.977 84.726,397.137 84.691,397.371C84.472,399.227 83.933,400.883 83.105,402.359C82.277,403.816 81.378,404.555 80.406,404.555C79.324,404.57 78.515,404.031 77.957,402.879C77.418,401.746 77.164,400.215 77.238,398.289C77.328,395.949 78.046,392.945 79.378,389.273C80.515,386.141 81.523,383.945 82.402,382.684C82.96,381.926 83.285,381.531 83.375,381.516C83.41,381.641 83.269,382.07 82.945,382.828C80.98,387.184 79.757,391.215 79.273,394.887C79.199,395.301 79.183,395.734 79.183,396.148C79.183,399.082 79.902,400.484 81.378,400.359C82.261,400.25 83.214,399.227 84.257,397.281Z" style="fill:rgb(255,93,0);fill-rule:nonzero;"/>
            </g>
            <g transform="matrix(0.748818,0,0,0.748818,129.422,-17.981)">
                <path d="M105.695,450.148C107.406,450.148 109.133,451.805 110.863,455.117C112.43,458.156 113.508,461.543 114.137,465.285C114.191,465.645 114.227,465.844 114.227,465.914C114.301,466.004 114.336,466.004 114.371,465.914C114.406,465.844 114.496,465.645 114.625,465.285C115.074,462.062 115.957,457.816 117.254,452.523C118.492,449.57 119.844,448.094 121.301,448.094C122.059,448.094 122.797,448.602 123.551,449.609C124.199,450.488 124.523,451.191 124.523,451.75C124.523,452.184 124.414,452.723 124.184,453.406C123.895,454.324 123.551,454.773 123.156,454.773C122.992,454.773 122.633,454.434 122.094,453.73C121.535,453.027 120.961,452.687 120.383,452.687C119.18,452.687 117.809,456.898 116.281,465.32C115.793,468.004 115.254,469.895 114.66,470.992C114.246,471.746 113.887,472.125 113.598,472.125C113.328,472.125 113.203,471.785 113.203,471.102C113.203,469.984 112.5,467.336 111.113,463.18C109.676,458.879 108.719,456.734 108.234,456.734C107.875,456.734 107.641,456.844 107.551,457.078C107.441,457.293 107.152,457.418 106.668,457.418C106.109,457.418 105.391,457.004 104.488,456.195C103.59,455.387 103.156,454.719 103.156,454.234C103.156,454.02 103.52,453.281 104.273,452.02C105.031,450.758 105.496,450.148 105.695,450.148Z" style="fill:rgb(255,93,0);fill-rule:nonzero;"/>
            </g>
            <path d="M379.801,326.363C379.801,323.176 379.297,320.602 378.324,318.656C378.324,317.344 379.223,314.625 381.059,310.504C381.438,309.586 381.871,309.605 382.32,310.539C382.844,311.656 384.047,314.715 385.938,319.719C387.918,324.941 389.09,328.16 389.41,329.402C389.664,330.27 389.809,330.953 389.809,331.402C389.809,332.895 388.402,332.031 385.633,328.809C385.309,328.414 385.145,328.629 385.145,329.441C385.145,329.746 386.172,343.949 388.207,372.047C390.238,400.16 391.266,415.461 391.266,417.926C391.266,425.578 390.098,432.254 387.793,437.945C387.305,439.133 386.91,439.977 386.605,440.5C386.152,441.238 385.883,441.328 385.777,440.789C385.648,440.23 385.703,439.004 385.938,437.117C386.227,434.504 386.387,431.465 386.387,427.988C386.387,424.93 385.289,407.902 383.094,376.941C380.898,345.965 379.801,329.098 379.801,326.363Z" style="fill:rgb(255,93,0);fill-rule:nonzero;"/>
            <g transform="matrix(1,0,0,1,-1.33333,-0.333333)">
                <path d="M304.523,351.094C304.523,347.945 304.039,345.352 303.066,343.336C303.066,342.059 303.965,339.359 305.785,335.234C306.18,334.316 306.613,334.336 307.063,335.273C307.586,336.387 308.789,339.449 310.66,344.453C312.66,349.672 313.813,352.875 314.137,354.082C314.387,355 314.531,355.684 314.531,356.133C314.531,357.574 313.145,356.711 310.375,353.543C310.051,353.09 309.887,353.289 309.887,354.137C309.887,354.422 310.754,366.539 312.516,390.461C314.281,414.398 315.16,427.594 315.16,430.059C315.16,437.621 313.992,444.297 311.652,450.094C311.164,451.266 310.77,452.109 310.48,452.633C310.016,453.371 309.742,453.461 309.652,452.918C309.512,452.363 309.563,451.137 309.797,449.246C310.086,446.637 310.23,443.613 310.23,440.156C310.23,437.078 309.277,422.141 307.367,395.336C305.461,368.555 304.523,353.793 304.523,351.094Z" style="fill:rgb(255,93,0);fill-rule:nonzero;"/>
            </g>
            <g transform="matrix(1,0,0,1,-2.2,-0.2)">
                <path d="M296.82,424.535C296.82,430.582 295.453,435.172 292.715,438.305C288.414,443.309 282.098,448.168 273.781,452.848C263.23,458.715 253.402,461.648 244.297,461.648C232.055,461.648 223.633,455.656 219.008,443.668C218.105,441.328 217.656,438.34 217.656,434.687C217.656,432.273 217.836,429.844 218.23,427.359C218.824,423.723 219.637,420.52 220.68,417.785C221.004,416.957 221.328,416.523 221.652,416.523C221.977,416.523 222.047,417.082 221.852,418.18C221.453,419.871 221.059,421.562 220.68,423.254C220.031,426.262 219.707,428.477 219.707,429.898C219.707,434.848 221.363,439.402 224.676,443.559C229.176,449.105 235.676,451.875 244.207,451.875C251.676,451.875 259.613,450.113 268.02,446.602C274.789,443.793 280.871,440.285 286.273,436.055C291.148,432.273 293.598,429.574 293.598,427.953C293.598,427.684 292.59,425.578 290.574,421.602C288.16,416.918 286.363,412.348 285.191,407.918C284.742,406.426 284.203,405.418 283.59,404.895C282.977,404.375 282.672,403.832 282.672,403.238C282.672,402.789 283.121,400.379 284.023,396.023C284.164,395.23 284.363,394.852 284.617,394.852C284.887,394.852 285.211,395.031 285.59,395.426C286.828,396.797 289.492,399.496 293.598,403.527C294.246,404.195 294.57,404.715 294.57,405.094C294.57,405.562 294.191,405.777 293.398,405.777C292.555,405.777 291.293,405.527 289.602,405.004C289.727,405.527 291.098,408.387 293.688,413.59C295.777,417.82 296.82,421.473 296.82,424.535Z" style="fill:rgb(255,93,0);fill-rule:nonzero;"/>
            </g>
            <path d="M259.883,412.457C259.738,412.367 259.738,412.168 259.883,411.879L262.996,405.473C263.195,405.074 263.41,404.895 263.629,404.895C263.953,404.895 265.355,405.742 267.84,407.434C270.305,409.125 271.547,410.117 271.547,410.402C271.547,411.52 270.449,413.824 268.273,417.352C268.004,417.801 267.73,417.91 267.445,417.695C264.996,415.82 262.477,414.094 259.883,412.457Z" style="fill:rgb(255,93,0);fill-rule:nonzero;"/>
            <path d="M346.41,405.437L348.895,400.305C349.094,399.91 349.309,399.73 349.543,399.73C349.867,399.73 351.254,400.574 353.734,402.27C356.203,403.961 357.445,404.949 357.445,405.238C357.445,406.355 356.348,408.656 354.168,412.168C353.914,412.602 353.629,412.707 353.34,412.508C351.199,410.926 348.77,409.25 346.066,407.488C345.148,409.539 344.27,411.285 343.387,412.727C343.133,413.176 342.848,413.285 342.559,413.066C340.109,411.195 337.59,409.469 334.996,407.828C334.855,407.738 334.855,407.543 334.996,407.254L338.113,400.844C338.309,400.449 338.527,400.27 338.742,400.25C339.047,400.27 340.234,400.953 342.305,402.359C344.395,403.762 345.762,404.789 346.41,405.437Z" style="fill:rgb(255,93,0);fill-rule:nonzero;"/>
            <g transform="matrix(1.29448,0,0,1.29448,-101.524,-126.804)">
                <path d="M340.254,390.461C340.469,389.793 340.508,389.109 340.398,388.426C340.254,387.668 339.91,387.309 339.371,387.309C339.121,387.309 338.762,387.437 338.328,387.668C337.879,387.922 337.645,388.156 337.645,388.391C337.645,388.93 338.527,389.633 340.254,390.461ZM338.922,393.5C336.742,392.367 335.645,391.18 335.645,389.937C335.645,388.445 336.348,387.074 337.715,385.832C339.102,384.59 340.254,384.125 341.172,384.465C341.945,384.734 342.324,385.563 342.324,386.949C342.324,388.191 342.07,389.594 341.551,391.145C342.648,391.773 343.352,392.313 343.621,392.746C343.621,393.34 343.133,394.328 342.145,395.734C341.875,395.301 341.207,394.762 340.145,394.113C338.922,395.805 337.375,397.355 335.504,398.738C333.379,400.305 331.414,401.492 329.633,402.285C329.273,402.465 327.203,403.258 323.461,404.645C322.867,404.859 322.488,404.969 322.289,404.969C322.199,404.969 322.164,404.934 322.164,404.895C322.164,404.75 322.488,404.465 323.137,404.051C325.906,402.41 328.68,400.754 331.469,399.082C334.801,397.066 337.285,395.211 338.922,393.5Z" style="fill:rgb(255,93,0);fill-rule:nonzero;"/>
            </g>
            <g transform="matrix(1.65058,0,0,1.65058,-211.296,-284.988)">
                <path d="M329.957,430.293C329.957,431.609 329.508,432.867 328.609,434.055C327.652,435.352 326.52,436 325.242,436C323.91,436 323.242,435.352 323.242,434.055C323.242,433.121 323.766,431.75 324.809,429.969C325.871,428.168 326.773,427.289 327.527,427.289C328.176,427.289 328.754,427.574 329.238,428.133C329.707,428.711 329.957,429.43 329.957,430.293ZM328.805,431.77C328.805,430.562 327.961,429.953 326.305,429.953C326.07,429.953 325.676,430.328 325.117,431.086C324.559,431.859 324.289,432.383 324.289,432.687C324.484,433.121 325.098,433.336 326.16,433.336C327.926,433.336 328.805,432.812 328.805,431.77Z" style="fill:rgb(255,93,0);fill-rule:nonzero;"/>
            </g>
            <g transform="matrix(1,0,0,1,1.83333,-0.333333)">
                <path d="M317.035,322.832C318.348,322.832 319.016,323.465 319.016,324.758C319.016,325.445 318.836,326.164 318.473,326.902C318.238,327.406 317.645,328.215 316.691,329.367C315.324,330.934 314.426,332.031 313.957,332.68C313.184,333.707 312.73,334.227 312.605,334.227C312.59,334.227 312.57,334.191 312.57,334.156C312.57,334.031 312.695,333.687 312.93,333.094C313.453,331.797 314.281,330.5 315.469,329.152C316.133,328.414 316.836,327.656 317.539,326.902C317.27,326.254 316.855,325.93 316.262,325.93C315.848,325.93 315.324,326.074 314.73,326.379C308.773,329.402 303.031,330.934 297.504,330.934C294.461,330.934 291.707,330.27 289.242,328.953C289.602,330.105 289.477,331.473 288.863,333.094C288.629,333.723 288.469,334.066 288.359,334.082C288.305,334.082 288.27,333.687 288.27,332.914C288.27,331.473 288.035,330.23 287.586,329.187C287.531,329.062 286.777,327.926 285.355,325.82C285.59,324.363 285.949,323.645 286.434,323.645C286.488,323.645 286.848,323.895 287.531,324.418C288.344,325.082 289.172,325.625 290.016,326.074C292.52,327.387 295.273,328.055 298.242,328.055C301.375,328.055 304.398,327.605 307.313,326.703C309.023,326.164 311.059,325.316 313.414,324.164C315.27,323.266 316.477,322.832 317.035,322.832Z" style="fill:rgb(255,93,0);fill-rule:nonzero;"/>
            </g>
            <path d="M251.207,421.418C251.207,422.031 250.434,423.398 248.902,425.559C247.156,427.973 245.504,429.754 243.938,430.871C242.93,431.57 239.598,432.687 233.93,434.184C232.922,434.434 232.414,434.523 232.414,434.469C232.488,434.363 232.828,434.074 233.461,433.586C234.199,433.012 236.215,431.879 239.508,430.133C242.676,428.457 244.531,427.379 245.07,426.91C245.16,426.801 245.215,426.711 245.215,426.621C245.215,425.867 242.387,425.504 236.773,425.504C236.754,425.504 235.676,425.543 233.531,425.633C232.508,425.687 232.004,425.613 232.004,425.434C232.004,425.289 232.129,425 232.379,424.551L234.379,421.168C234.973,420.176 236.035,419.566 237.582,419.297C238.141,419.207 239.438,419.168 241.488,419.168C247.969,419.168 251.207,419.906 251.207,421.418Z" style="fill:rgb(255,93,0);fill-rule:nonzero;"/>
            <g transform="matrix(1,0,0,1,4.33333,-4.22891)">
                <path d="M238.609,295.203C258.012,287.914 277.793,280.461 297.988,272.867C298.367,272.738 298.586,272.687 298.656,272.738C298.746,272.812 298.727,273.008 298.586,273.332C298.172,274.341 297.828,274.953 297.574,275.187C279.02,282.137 258.965,289.875 237.422,298.406C237.652,297.418 238.051,296.355 238.609,295.203Z" style="fill:rgb(255,93,0);fill-rule:nonzero;"/>
            </g>
            <g transform="matrix(1,0,0,1,0.666667,1)">
                <path d="M280.043,308.129C280.711,308.504 281.035,308.957 281.035,309.461C281.035,309.82 280.871,310.16 280.547,310.484C279.613,311.422 279.035,311.836 278.801,311.711C278.82,311.387 278.496,310.863 277.848,310.125C277.398,309.875 276.191,309.801 274.23,309.926C272.141,310.035 270.449,310.34 269.172,310.844C268.738,311.008 268.543,311.187 268.523,311.402C268.543,311.781 269.227,312.359 270.613,313.148C271.656,313.762 273.023,314.375 274.68,314.969C276.355,315.562 277.363,315.977 277.738,316.172C279.793,317.379 280.746,318.746 280.586,320.297C280.492,321.23 279.898,322.168 278.801,323.105C277.813,323.949 277.129,324.328 276.75,324.238C270.773,322.797 266.598,321.375 264.168,319.973C262.172,318.801 261.16,317.145 261.16,314.984C261.16,314.59 261.199,314.211 261.289,313.871C261.883,314.934 263.25,316.102 265.41,317.344C266.328,317.883 268.633,318.801 272.359,320.078C275.672,321.23 277.723,321.898 278.516,322.094C278.801,320.98 277.758,319.738 275.383,318.352C273.742,317.777 271.492,316.82 268.633,315.508C266.797,314.426 265.859,313.473 265.859,312.629C265.859,311.945 266.488,311.207 267.73,310.414C270.684,308.504 273.762,307.57 276.965,307.57C278.352,307.57 279.379,307.75 280.043,308.129Z" style="fill:rgb(255,93,0);fill-rule:nonzero;"/>
            </g>
            <path d="M249.426,401.727C261.035,397.391 273.059,392.926 285.48,388.301C285.859,388.172 286.074,388.121 286.145,388.172C286.234,388.246 286.219,388.445 286.074,388.77C285.66,389.793 285.316,390.422 285.047,390.621C284.922,390.766 279.145,392.961 267.73,397.227C256.086,401.566 249.59,404.121 248.238,404.934C248.473,403.961 248.867,402.898 249.426,401.727Z" style="fill:rgb(255,93,0);fill-rule:nonzero;"/>
            <g transform="matrix(0.731209,0.274301,-0.274301,0.731209,159.363,11.7603)">
                <path d="M239.004,348.59C239.004,349.203 238.23,350.57 236.699,352.73C234.953,355.145 233.297,356.926 231.73,358.043C230.723,358.742 227.395,359.859 221.723,361.355C220.715,361.605 220.211,361.695 220.211,361.641C220.285,361.535 220.625,361.246 221.258,360.758C221.992,360.184 224.012,359.051 227.305,357.305C230.473,355.629 232.324,354.551 232.867,354.082C232.957,353.973 233.012,353.883 233.012,353.793C233.012,353.039 230.184,352.676 224.566,352.676C224.551,352.676 223.469,352.715 221.328,352.805C220.301,352.859 219.797,352.785 219.797,352.605C219.797,352.461 219.926,352.172 220.176,351.723L222.176,348.34C222.77,347.352 223.828,346.738 225.379,346.469C225.938,346.379 227.23,346.34 229.285,346.34C235.766,346.34 239.004,347.078 239.004,348.59Z" style="fill:rgb(255,93,0);fill-rule:nonzero;"/>
            </g>
            <g transform="matrix(0.808617,0.989871,-0.989871,0.808617,415.265,-142.402)">
                <path d="M208.422,354.152C209.125,354.152 210.113,354.641 211.391,355.648C212.672,356.637 213.355,357.5 213.48,358.223C213.496,358.418 213.336,358.906 212.977,359.68C212.633,360.473 212.383,360.887 212.238,360.941C211.105,361.266 209.953,361.57 208.801,361.875C207.379,362.344 206.387,362.902 205.813,363.531C207.414,368.355 208.223,373.125 208.223,377.84C208.223,379.227 208.063,380.633 207.758,382.07C207.629,382.559 207.539,382.809 207.469,382.844C207.344,382.844 207.27,382.02 207.27,380.379C207.27,377.66 206.855,374.387 206.063,370.551C205.273,366.719 204.875,364.523 204.875,363.945C204.875,362.055 205.414,360.652 206.477,359.77C207,359.336 207.973,358.922 209.395,358.492C208.816,357.914 208.262,357.629 207.719,357.629C207.449,357.629 207.09,357.934 206.621,358.547C206.152,359.156 205.883,359.465 205.813,359.465C205.703,359.465 205.668,359.211 205.703,358.691C206.047,355.664 206.945,354.152 208.422,354.152Z" style="fill:rgb(255,93,0);fill-rule:nonzero;"/>
            </g>
            <g transform="matrix(1,0,0,1,0.333333,0)">
                <path d="M401.363,342.453C401.363,344.453 400.535,346.719 398.898,349.258C397.223,351.922 395.047,354.191 392.398,356.062C391.34,356.801 390.727,357.176 390.527,357.176C390.492,357.176 390.473,357.141 390.473,357.105C390.473,356.961 390.926,356.387 391.805,355.414C396.18,350.645 398.375,347.457 398.375,345.855C398.375,344.324 397.676,343.57 396.254,343.57C395.477,343.57 394.777,343.785 394.145,344.219C393.68,344.523 393.391,344.703 393.281,344.738C393.191,344.668 393.102,344.613 392.977,344.578C393.031,344.414 393.102,344 393.211,343.336C393.93,340.059 395.566,338.422 398.141,338.422C400.285,338.422 401.363,339.754 401.363,342.453Z" style="fill:rgb(255,93,0);fill-rule:nonzero;"/>
            </g>
            <g transform="matrix(1,0,0,1,0.166667,-0.166667)">
                <path d="M328.375,460.859C330.191,460.859 331.828,461.937 333.27,464.098C334.727,466.258 335.734,469.082 336.328,472.574C336.383,472.937 336.422,473.152 336.422,473.207C336.492,473.312 336.527,473.312 336.563,473.207C336.602,473.152 336.672,472.937 336.816,472.574C337.105,470.488 337.824,467.375 338.957,463.25C340.199,460.281 341.551,458.805 343.008,458.805C343.766,458.805 344.504,459.309 345.258,460.316C345.906,461.199 346.23,461.902 346.23,462.461C346.23,462.891 346.121,463.449 345.887,464.133C345.602,465.035 345.258,465.5 344.863,465.5C344.699,465.5 344.34,465.141 343.781,464.441C343.242,463.738 342.664,463.395 342.07,463.395C340.777,463.395 339.57,466.473 338.473,472.613C337.984,475.293 337.445,477.184 336.852,478.281C336.438,479.039 336.078,479.414 335.789,479.414C335.52,479.414 335.395,479.074 335.395,478.391C335.395,477.309 334.781,475.223 333.539,472.109C332.297,468.992 331.434,467.445 330.91,467.445C330.551,467.445 330.316,467.555 330.227,467.789C330.121,468.004 329.832,468.129 329.348,468.129C328.789,468.129 328.066,467.715 327.168,466.906C326.27,466.094 325.836,465.43 325.836,464.945C325.836,464.727 326.195,463.988 326.953,462.73C327.707,461.469 328.176,460.859 328.375,460.859Z" style="fill:rgb(255,93,0);fill-rule:nonzero;"/>
            </g>
            <g transform="matrix(1,0,0,1,-0.166667,0)">
                <path d="M394.848,370.066C396.09,370.066 397.332,371.254 398.574,373.648C399.691,375.824 400.48,378.254 400.934,380.957C400.969,381.207 401.004,381.371 401.004,381.406C401.039,381.477 401.074,381.477 401.113,381.406C401.129,381.371 401.184,381.207 401.273,380.957C401.617,378.633 402.246,375.574 403.184,371.777C404.063,369.652 405.035,368.59 406.098,368.59C406.637,368.59 407.18,368.949 407.719,369.668C408.188,370.301 408.422,370.82 408.422,371.219C408.422,371.523 408.328,371.918 408.168,372.406C407.953,373.07 407.719,373.395 407.43,373.395C407.305,373.395 407.051,373.145 406.656,372.641C406.262,372.152 405.848,371.902 405.434,371.902C404.566,371.902 403.578,374.926 402.48,380.992C402.121,382.918 401.742,384.27 401.309,385.078C401.004,385.617 400.754,385.887 400.535,385.887C400.355,385.887 400.266,385.637 400.266,385.148C400.266,384.34 399.762,382.449 398.754,379.445C397.727,376.348 397.027,374.816 396.684,374.816C396.414,374.816 396.254,374.891 396.18,375.051C396.109,375.215 395.91,375.305 395.551,375.305C395.152,375.305 394.633,374.996 393.984,374.422C393.355,373.828 393.031,373.359 393.031,373.02C393.031,372.855 393.301,372.316 393.82,371.414C394.363,370.516 394.703,370.066 394.848,370.066Z" style="fill:rgb(255,93,0);fill-rule:nonzero;"/>
            </g>
            <g transform="matrix(1,0,0,1,0.166667,0.166667)">
                <path d="M399.023,411.52C400.121,411.52 401.148,411.051 402.121,410.098C403.254,409.02 403.828,407.648 403.828,406.012C403.828,404.211 402.805,403.312 400.789,403.312C399.887,403.312 399.098,403.582 398.43,404.141C398.449,403.078 399.188,401.441 400.66,399.207C401.992,397.137 403.324,395.5 404.641,394.293C404.965,393.934 405.055,393.629 404.945,393.359C404.855,393.125 404.641,393.105 404.297,393.305C402.57,394.348 400.734,396.328 398.789,399.207C396.559,402.449 395.461,405.238 395.461,407.594C395.461,410.207 396.648,411.52 399.023,411.52Z" style="fill:rgb(255,93,0);fill-rule:nonzero;"/>
            </g>
            <g transform="matrix(1,0,0,1,-1.83333,0.833333)">
                <path d="M268.883,464.457C268.883,466.113 268.199,468.004 266.832,470.129C265.43,472.34 263.629,474.23 261.414,475.797C260.531,476.41 260.012,476.734 259.847,476.734C259.812,476.734 259.812,476.715 259.812,476.68C259.812,476.555 260.172,476.066 260.93,475.258C264.563,471.281 266.398,468.633 266.398,467.285C266.398,466.023 265.805,465.395 264.637,465.395C263.988,465.395 263.395,465.574 262.871,465.934C262.492,466.187 262.242,466.328 262.152,466.367C262.078,466.293 262.008,466.258 261.898,466.223C261.937,466.094 262.008,465.754 262.097,465.195C262.691,462.461 264.043,461.09 266.203,461.09C267.984,461.09 268.883,462.207 268.883,464.457Z" style="fill:rgb(255,93,0);fill-rule:nonzero;"/>
            </g>
            <g transform="matrix(0.24,0,0,0.24,0,0)">
                <path d="M1504.12,1867.65L1504.12,1867.6C1517.1,1867.6 1529.7,1862.57 1541.93,1852.52C1545.44,1849.51 1547.25,1838.72 1547.25,1819.97C1547.25,1808.56 1541.18,1719.17 1529.1,1551.84C1517.03,1384.44 1511.02,1293.68 1511.02,1279.59C1511.02,1266.54 1508.71,1255.81 1504.12,1247.41C1504.12,1242.55 1507.94,1231.28 1515.67,1213.67C1516.5,1211.49 1517.32,1210.43 1518.15,1210.43C1518.98,1210.43 1519.95,1211.49 1521.08,1213.67C1523.24,1218.54 1528.35,1231.28 1536.38,1251.92C1544.7,1273.58 1549.64,1287.01 1551.3,1292.19C1552.13,1296.01 1552.57,1298.86 1552.57,1300.73C1552.57,1306.67 1546.79,1303.06 1535.4,1289.71C1534.05,1287.84 1533.38,1288.67 1533.38,1292.19C1533.38,1293.02 1539.08,1372.3 1550.47,1530.01C1561.88,1687.81 1567.58,1773.47 1567.58,1787.05C1567.58,1826.33 1560.53,1857.31 1546.42,1879.82C1534.42,1898.8 1520.33,1908.32 1504.12,1908.32L1504.12,1908.25L1504.05,1908.32C1488.98,1908.32 1473.6,1901.71 1457.85,1888.51C1449.45,1881.46 1442.85,1873.89 1438.12,1865.72L1393.42,1884.68L1393.28,1884.61L1393.28,1884.62C1372.43,1893.54 1356.82,1900.52 1346.55,1905.39C1326.22,1914.85 1312.21,1922.56 1304.62,1928.56C1290.67,1939.44 1270.42,1960.22 1243.8,1990.82C1227.98,2009.11 1212,2018.34 1196.03,2018.34C1182.6,2018.34 1170.9,2012.27 1160.85,2000.2C1150.28,1987.6 1145.02,1972.22 1145.02,1953.99C1145.02,1928.94 1155.3,1896.24 1175.93,1855.98C1178.09,1851.76 1179.75,1849.66 1180.96,1849.66C1181.54,1849.82 1181.77,1850.34 1181.77,1851.24C1181.77,1855.37 1177.35,1869.38 1168.34,1893.48C1159.42,1917.55 1155,1936.59 1155,1950.54C1155,1961.26 1157.47,1969.81 1162.5,1976.19C1167.76,1983.09 1175.18,1986.62 1184.62,1986.62C1201.35,1986.62 1218.23,1978.06 1235.32,1961.12C1246.12,1948.21 1257,1935.38 1267.8,1922.49C1281.9,1906.59 1300.42,1892.42 1323.37,1879.96C1336.8,1872.61 1360.12,1861.96 1393.28,1848.01L1393.28,1848.13L1393.42,1848.01L1426.5,1833.98C1421.78,1821.01 1419.45,1807.75 1419.45,1794.32C1419.45,1773.99 1422.45,1757.63 1428.45,1745.26C1434.52,1732.96 1442.48,1726.82 1452.38,1726.82C1461.15,1726.82 1469.4,1734.1 1477.13,1748.8C1484.02,1761.77 1487.55,1773.62 1487.55,1784.2C1487.55,1811.03 1479.67,1833.09 1463.93,1850.26C1475.1,1861.82 1488.45,1867.6 1504.05,1867.6L1504.12,1867.65ZM1477.2,1801.66C1477.2,1797.17 1473.68,1790.27 1466.78,1780.89C1459.2,1770.83 1452.6,1765.88 1447.05,1765.88C1442.85,1765.88 1438.72,1768.44 1434.67,1773.62C1430.63,1778.71 1428.6,1783.59 1428.6,1788.23C1428.6,1792.14 1430.78,1799.04 1435.27,1808.79C1439.1,1817.33 1442.03,1823.11 1444.2,1826.04C1449.9,1823.34 1456.43,1819.52 1463.77,1814.49C1472.7,1808.5 1477.2,1804.22 1477.2,1801.66Z" style="fill:rgb(255,93,0);fill-rule:nonzero;"/>
            </g>
            <g transform="matrix(0.546709,0,0,0.546709,86.0847,243.028)">
                <path d="M421.738,435.191C421.867,434.918 421.973,434.738 422.102,434.668C422.172,434.578 422.227,434.594 422.262,434.723C422.316,434.828 422.316,435.027 422.262,435.297C421.992,437.531 421.363,439.527 420.371,441.273C419.363,443.039 418.285,443.918 417.113,443.918C415.836,443.957 414.848,443.289 414.18,441.922C413.516,440.555 413.227,438.719 413.316,436.414C413.426,433.57 414.523,429.375 416.594,423.867C418.391,419.027 419.941,415.605 421.273,413.57C421.867,412.672 422.242,412.203 422.441,412.168C422.477,412.312 422.316,412.852 421.922,413.734C418.984,420.27 417.098,425.543 416.23,429.555C415.871,431.156 415.711,432.617 415.711,433.895C415.711,435.695 416.035,437.043 416.699,437.945C417.203,438.684 417.727,438.988 418.285,438.879C419.418,438.645 420.57,437.422 421.738,435.191Z" style="fill:rgb(255,93,0);fill-rule:nonzero;"/>
            </g>
        </g>
        <g transform="matrix(2.3411,0,0,2.3411,-218.814,-67.2744)">
            <path d="M295.508,197.934C293.293,197.934 291.188,199.715 289.207,203.258C286.559,207.977 284.129,211.18 281.879,212.871C282.277,212.906 282.816,213.016 283.48,213.176C287.371,214.707 289.297,217.461 289.297,221.477C289.297,222.484 289.117,223.473 288.758,224.445C287.336,228.387 284.527,230.367 280.367,230.367C279.395,230.367 278.426,230.207 277.488,229.863C276.68,229.574 275.922,229.16 275.238,228.605C275.438,229.648 275.527,230.691 275.527,231.719C275.527,233.805 275.113,236.363 274.246,239.387C273.383,242.426 272.953,244.445 272.953,245.453C272.953,246.945 273.473,248.207 274.52,249.215C273.512,248.207 272.25,247.703 270.758,247.703C269.711,247.703 267.641,248.133 264.547,248.996C261.469,249.844 258.894,250.277 256.844,250.277C256.195,250.277 255.563,250.258 254.934,250.187C255.008,250.473 255.133,250.672 255.328,250.781C255.887,251.949 256.156,253.172 256.156,254.488C256.156,258.195 254.449,260.859 251.027,262.496C249.82,263.074 248.563,263.363 247.23,263.363C243.449,263.363 240.805,261.668 239.273,258.285C239.113,257.996 238.895,257.566 238.645,256.973C237.043,258.988 233.91,261.293 229.266,263.867C225.809,265.773 224.082,267.824 224.082,270.005C224.082,267.824 222.391,265.773 218.969,263.867C214.309,261.254 211.195,258.953 209.594,256.973C209.555,257.098 209.359,257.547 209.016,258.285C207.484,261.668 204.82,263.363 201.059,263.363C199.746,263.363 198.484,263.074 197.242,262.496C193.859,260.895 192.168,258.25 192.168,254.578C192.168,253.246 192.457,251.969 193.051,250.781C193.051,250.781 193.141,250.582 193.34,250.187C192.727,250.258 192.098,250.277 191.43,250.277C189.395,250.277 186.82,249.844 183.742,248.996C180.684,248.133 178.613,247.703 177.57,247.703C176.039,247.703 174.762,248.207 173.719,249.215C174.762,248.207 175.285,246.926 175.285,245.398C175.285,244.426 174.852,242.426 174.008,239.387C173.16,236.363 172.746,233.84 172.746,231.824C172.746,230.711 172.836,229.648 173.035,228.605C172.223,229.215 171.469,229.648 170.785,229.863C169.848,230.207 168.895,230.367 167.902,230.367C163.781,230.367 160.992,228.387 159.57,224.445C159.211,223.473 159.031,222.465 159.031,221.422C159.031,217.426 160.957,214.672 164.789,213.176C165.148,213.105 165.672,213.016 166.355,212.871C164.105,211.18 161.676,207.977 159.086,203.258C157.121,199.715 155.035,197.934 152.84,197.934C155.035,197.934 157.121,196.168 159.086,192.605C161.676,187.961 164.105,184.793 166.355,183.082C165.996,183.027 165.473,182.918 164.789,182.738C160.957,181.281 159.031,178.527 159.031,174.496C159.031,173.453 159.211,172.445 159.57,171.473C161.027,167.531 163.816,165.566 167.902,165.566C168.895,165.566 169.848,165.73 170.785,166.055C171.574,166.34 172.313,166.773 173.035,167.367C172.836,166.324 172.746,165.242 172.746,164.145C172.746,162.094 173.16,159.555 174.008,156.531C174.852,153.508 175.285,151.473 175.285,150.465C175.285,148.898 174.762,147.605 173.719,146.559C174.797,147.605 176.129,148.125 177.715,148.125C178.758,148.125 180.809,147.711 183.852,146.883C186.895,146.055 189.414,145.641 191.43,145.641C192.098,145.641 192.727,145.676 193.34,145.73C193.246,145.445 193.141,145.266 193.051,145.191C192.457,143.969 192.168,142.672 192.168,141.34C192.168,137.668 193.859,135.023 197.242,133.418C198.484,132.844 199.766,132.555 201.098,132.555C204.84,132.555 207.484,134.266 209.016,137.668C209.18,137.973 209.359,138.406 209.594,139C211.195,137 214.309,134.699 218.969,132.051C222.391,130.109 224.082,128 224.082,125.77C224.082,128 225.809,130.109 229.266,132.051C233.91,134.66 237.043,136.984 238.645,139C238.805,138.695 239.004,138.262 239.273,137.668C240.805,134.266 243.434,132.555 247.176,132.555C248.508,132.555 249.805,132.844 251.027,133.418C254.449,135.059 256.156,137.723 256.156,141.43C256.156,142.742 255.887,143.984 255.328,145.191C255.098,145.301 254.969,145.48 254.934,145.73C255.563,145.676 256.195,145.641 256.844,145.641C258.894,145.641 261.449,146.055 264.512,146.883C267.57,147.711 269.605,148.125 270.613,148.125C272.16,148.125 273.473,147.605 274.52,146.559C273.473,147.605 272.953,148.898 272.953,150.43C272.953,151.457 273.383,153.508 274.246,156.551C275.113,159.59 275.527,162.148 275.527,164.199C275.527,165.262 275.438,166.324 275.238,167.367C275.867,166.809 276.625,166.379 277.543,166.055C278.441,165.73 279.395,165.566 280.367,165.566C284.508,165.566 287.297,167.531 288.758,171.473C289.117,172.445 289.297,173.434 289.297,174.441C289.297,178.508 287.371,181.281 283.48,182.738C283.266,182.848 282.727,182.957 281.879,183.082C284.129,184.793 286.559,187.961 289.207,192.605C291.188,196.168 293.293,197.934 295.508,197.934ZM250.398,141.734C250.523,141.34 250.598,140.945 250.598,140.566C250.598,139.125 249.93,138.172 248.598,137.668C248.203,137.488 247.789,137.379 247.375,137.379C245.449,137.379 244.492,138.441 244.492,140.566C244.492,142.582 245.504,143.59 247.52,143.59C248.977,143.59 249.949,142.961 250.398,141.734ZM284.023,173.902C284.023,173.09 283.734,172.371 283.156,171.742C282.563,171.094 281.879,170.789 281.105,170.789C280.262,170.789 279.523,171.094 278.91,171.687C278.281,172.301 277.973,173.02 277.973,173.867C277.973,174.676 278.281,175.395 278.875,176.008C279.484,176.621 280.188,176.945 280.996,176.945C283.016,176.945 284.023,175.937 284.023,173.902ZM200.863,137.434C199.98,137.434 199.223,137.738 198.594,138.352C197.945,138.98 197.641,139.719 197.641,140.602C197.641,140.996 197.711,141.375 197.875,141.734C198.359,142.961 199.313,143.59 200.719,143.59C202.754,143.59 203.777,142.547 203.777,140.457C203.777,138.441 202.805,137.434 200.863,137.434ZM283.824,220.883C283.34,219.656 282.422,219.027 281.051,219.027C280.242,219.027 279.523,219.332 278.91,219.926C278.281,220.539 277.973,221.242 277.973,222.051C277.973,222.879 278.297,223.582 278.93,224.211C279.559,224.824 280.297,225.129 281.141,225.129C281.934,225.129 282.602,224.824 283.176,224.176C283.734,223.547 284.023,222.824 284.023,222.016C284.023,221.621 283.969,221.242 283.824,220.883ZM279.09,197.934C279.09,182.578 273.762,169.383 263.09,158.387C252.289,147.281 239.293,141.734 224.082,141.734C208.836,141.734 195.859,147.281 185.164,158.402C174.473,169.527 169.129,182.758 169.129,198.129C169.129,213.539 174.473,226.73 185.164,237.73C195.859,248.746 208.836,254.199 224.082,254.145C239.309,254.074 252.324,248.512 263.09,237.441C273.762,226.406 279.09,213.23 279.09,197.934ZM167.219,170.789C166.41,170.789 165.707,171.094 165.098,171.742C164.504,172.371 164.195,173.109 164.195,173.957C164.195,174.766 164.504,175.469 165.133,176.062C165.742,176.637 166.48,176.945 167.328,176.945C167.723,176.945 168.086,176.871 168.445,176.746C169.688,176.152 170.297,175.18 170.297,173.812C170.297,171.797 169.273,170.789 167.219,170.789ZM250.398,254.184C249.84,252.992 248.852,252.383 247.43,252.383C245.465,252.383 244.492,253.355 244.492,255.316C244.492,255.73 244.566,256.18 244.727,256.629C245.23,257.871 246.133,258.484 247.465,258.484C247.859,258.484 248.238,258.43 248.598,258.285C249.93,257.801 250.598,256.828 250.598,255.371C250.598,254.973 250.523,254.578 250.398,254.184ZM203.598,256.629C203.762,256.215 203.832,255.801 203.832,255.406C203.832,253.391 202.824,252.383 200.809,252.383C199.352,252.383 198.359,252.992 197.875,254.184C197.711,254.578 197.641,254.973 197.641,255.371C197.641,257.441 198.684,258.484 200.754,258.484C202.195,258.484 203.129,257.871 203.598,256.629ZM170.297,222.051C170.297,220.664 169.688,219.711 168.445,219.227C168.066,219.062 167.672,218.973 167.273,218.973C165.223,218.973 164.195,219.98 164.195,221.961C164.195,222.809 164.504,223.547 165.078,224.176C165.672,224.824 166.375,225.129 167.184,225.129C169.254,225.129 170.297,224.105 170.297,222.051ZM276.805,197.934C276.805,212.582 271.656,225.184 261.359,235.73C251.063,246.281 238.645,251.625 224.082,251.75C209.539,251.879 197.117,246.621 186.805,235.984C176.543,225.437 171.434,212.801 171.434,198.074C171.434,183.406 176.543,170.75 186.805,160.133C197.152,149.402 209.574,144.074 224.082,144.164C238.645,144.273 251.063,149.602 261.359,160.168C271.656,170.734 276.805,183.316 276.805,197.934ZM272.125,197.934C272.125,184.449 267.48,172.91 258.211,163.316C248.832,153.617 237.457,148.738 224.082,148.664C210.742,148.594 199.387,153.488 189.973,163.355C180.703,173.055 176.059,184.629 176.059,198.074C176.059,211.629 180.703,223.203 189.973,232.797C199.352,242.5 210.707,247.324 224.082,247.25C237.457,247.199 248.832,242.301 258.211,232.602C267.48,222.969 272.125,211.414 272.125,197.934Z" style="fill:rgb(255,93,0);fill-rule:nonzero;"/>
        </g>
    </g>
</svg>
