<svg xmlns="http://www.w3.org/2000/svg" width="16" height="16" viewBox="0 0 16 16">
  <title>page</title>
  <desc id="desc">
    page
  </desc>
  <path fill="currentColor"
    d="M5 6.5a.5.5 0 0 1 .5-.5h5a.5.5 0 0 1 0 1h-5a.5.5 0 0 1-.5-.5M5.5 9a.5.5 0 0 0 0 1h5a.5.5 0 0 0 0-1zM5 12.5a.5.5 0 0 1 .5-.5h5a.5.5 0 0 1 0 1h-5a.5.5 0 0 1-.5-.5M5.5 3a.5.5 0 0 0 0 1H8V3z" />
  <path fill="currentColor" fill-rule="evenodd"
    d="M14 4.57a.5.5 0 0 0-.024-.235l-.013-.063a1.5 1.5 0 0 0-.18-.434c-.092-.15-.222-.28-.482-.54l-2.59-2.59c-.259-.26-.389-.39-.54-.483a1.5 1.5 0 0 0-.496-.193a.5.5 0 0 0-.235-.024C9.329.004 9.194.004 9.015.004h-2.21c-1.68 0-2.52 0-3.16.327a3.02 3.02 0 0 0-1.31 1.31c-.327.642-.327 1.48-.327 3.16v6.4c0 1.68 0 2.52.327 3.16a3.02 3.02 0 0 0 1.31 1.31c.642.327 1.48.327 3.16.327h2.4c1.68 0 2.52 0 3.16-.327a3 3 0 0 0 1.31-1.31c.327-.642.327-1.48.327-3.16V4.99c0-.178 0-.313-.005-.425zm-2.91 10.4c-.45.037-1.03.038-1.89.038H6.8c-.857 0-1.44-.001-1.89-.038c-.438-.036-.663-.101-.819-.18a2 2 0 0 1-.874-.874c-.08-.156-.145-.381-.18-.819c-.037-.45-.038-1.03-.038-1.89v-6.4c0-.857.001-1.44.038-1.89c.036-.438.101-.663.18-.819c.192-.376.498-.682.874-.874c.156-.08.381-.145.819-.18c.45-.037 1.03-.038 1.89-.038H9v3.5a.5.5 0 0 0 .5.5H13v6.2c0 .857 0 1.44-.038 1.89c-.035.438-.1.663-.18.82a2 2 0 0 1-.874.873c-.156.08-.38.145-.819.18zM10 1.47l2.59 2.59H10z"
    clip-rule="evenodd" />
</svg>
